<mxfile host="Electron" agent="Mozilla/5.0 (Windows NT 10.0; Win64; x64) AppleWebKit/537.36 (KHTML, like Gecko) draw.io/28.2.5 Chrome/138.0.7204.251 Electron/37.6.1 Safari/537.36" version="28.2.5">
  <diagram id="DT_mb8oxwWio69ZFNz3d" name="Leht-1">
    <mxGraphModel dx="922" dy="2571" grid="1" gridSize="10" guides="1" tooltips="1" connect="1" arrows="1" fold="1" page="1" pageScale="1" pageWidth="827" pageHeight="1169" math="0" shadow="0">
      <root>
        <mxCell id="0" />
        <mxCell id="1" parent="0" />
        <mxCell id="wiZwO5poyF75nGGs72vM-3" value="" style="edgeStyle=orthogonalEdgeStyle;rounded=0;orthogonalLoop=1;jettySize=auto;html=1;" edge="1" parent="1" source="wiZwO5poyF75nGGs72vM-1" target="wiZwO5poyF75nGGs72vM-2">
          <mxGeometry relative="1" as="geometry" />
        </mxCell>
        <mxCell id="wiZwO5poyF75nGGs72vM-1" value="Algus" style="ellipse;whiteSpace=wrap;html=1;" vertex="1" parent="1">
          <mxGeometry x="275" y="-10" width="120" height="80" as="geometry" />
        </mxCell>
        <mxCell id="wiZwO5poyF75nGGs72vM-41" value="" style="edgeStyle=orthogonalEdgeStyle;rounded=0;orthogonalLoop=1;jettySize=auto;html=1;" edge="1" parent="1" source="wiZwO5poyF75nGGs72vM-2" target="wiZwO5poyF75nGGs72vM-36">
          <mxGeometry relative="1" as="geometry" />
        </mxCell>
        <mxCell id="wiZwO5poyF75nGGs72vM-2" value="Kuva kasutajale tekst&lt;div&gt;&quot;Tere külaline, palun registreeri ennast!&lt;/div&gt;&lt;div&gt;Mis on sinu nimi?&quot;&lt;/div&gt;" style="shape=parallelogram;perimeter=parallelogramPerimeter;whiteSpace=wrap;html=1;fixedSize=1;" vertex="1" parent="1">
          <mxGeometry x="275" y="160" width="120" height="60" as="geometry" />
        </mxCell>
        <mxCell id="wiZwO5poyF75nGGs72vM-15" value="" style="edgeStyle=orthogonalEdgeStyle;rounded=0;orthogonalLoop=1;jettySize=auto;html=1;" edge="1" parent="1" source="wiZwO5poyF75nGGs72vM-13" target="wiZwO5poyF75nGGs72vM-14">
          <mxGeometry relative="1" as="geometry" />
        </mxCell>
        <mxCell id="wiZwO5poyF75nGGs72vM-13" value="Kasutaja ei sisestanud nime, annan ise nime - NimetuKasutaja" style="shape=parallelogram;perimeter=parallelogramPerimeter;whiteSpace=wrap;html=1;fixedSize=1;" vertex="1" parent="1">
          <mxGeometry x="230" y="540" width="200" height="90" as="geometry" />
        </mxCell>
        <mxCell id="wiZwO5poyF75nGGs72vM-17" value="" style="edgeStyle=orthogonalEdgeStyle;rounded=0;orthogonalLoop=1;jettySize=auto;html=1;" edge="1" parent="1" source="wiZwO5poyF75nGGs72vM-14" target="wiZwO5poyF75nGGs72vM-16">
          <mxGeometry relative="1" as="geometry" />
        </mxCell>
        <mxCell id="wiZwO5poyF75nGGs72vM-14" value="Kuva kasutajale tekst&lt;div&gt;&quot;Palun sisesta oma kasutaja jaoks ka parool&quot;&lt;/div&gt;" style="shape=parallelogram;perimeter=parallelogramPerimeter;whiteSpace=wrap;html=1;fixedSize=1;" vertex="1" parent="1">
          <mxGeometry x="240" y="680" width="180" height="85" as="geometry" />
        </mxCell>
        <mxCell id="wiZwO5poyF75nGGs72vM-19" value="" style="edgeStyle=orthogonalEdgeStyle;rounded=0;orthogonalLoop=1;jettySize=auto;html=1;" edge="1" parent="1" source="wiZwO5poyF75nGGs72vM-16" target="wiZwO5poyF75nGGs72vM-18">
          <mxGeometry relative="1" as="geometry" />
        </mxCell>
        <mxCell id="wiZwO5poyF75nGGs72vM-16" value="Kuva kasutajale kastike, kuhu ta saab parooli kirjutada" style="shape=parallelogram;perimeter=parallelogramPerimeter;whiteSpace=wrap;html=1;fixedSize=1;" vertex="1" parent="1">
          <mxGeometry x="240" y="870" width="180" height="77.5" as="geometry" />
        </mxCell>
        <mxCell id="wiZwO5poyF75nGGs72vM-20" style="edgeStyle=orthogonalEdgeStyle;rounded=0;orthogonalLoop=1;jettySize=auto;html=1;entryX=1;entryY=0.5;entryDx=0;entryDy=0;" edge="1" parent="1" source="wiZwO5poyF75nGGs72vM-18" target="wiZwO5poyF75nGGs72vM-16">
          <mxGeometry relative="1" as="geometry">
            <Array as="points">
              <mxPoint x="530" y="1046" />
              <mxPoint x="530" y="910" />
              <mxPoint x="410" y="910" />
            </Array>
          </mxGeometry>
        </mxCell>
        <mxCell id="wiZwO5poyF75nGGs72vM-21" value="Ei" style="edgeLabel;html=1;align=center;verticalAlign=middle;resizable=0;points=[];" vertex="1" connectable="0" parent="wiZwO5poyF75nGGs72vM-20">
          <mxGeometry x="-0.722" y="1" relative="1" as="geometry">
            <mxPoint as="offset" />
          </mxGeometry>
        </mxCell>
        <mxCell id="wiZwO5poyF75nGGs72vM-25" value="" style="edgeStyle=orthogonalEdgeStyle;rounded=0;orthogonalLoop=1;jettySize=auto;html=1;" edge="1" parent="1" source="wiZwO5poyF75nGGs72vM-18" target="wiZwO5poyF75nGGs72vM-24">
          <mxGeometry relative="1" as="geometry" />
        </mxCell>
        <mxCell id="wiZwO5poyF75nGGs72vM-45" value="Jah" style="edgeLabel;html=1;align=center;verticalAlign=middle;resizable=0;points=[];" vertex="1" connectable="0" parent="wiZwO5poyF75nGGs72vM-25">
          <mxGeometry x="-0.1956" y="3" relative="1" as="geometry">
            <mxPoint as="offset" />
          </mxGeometry>
        </mxCell>
        <mxCell id="wiZwO5poyF75nGGs72vM-18" value="Kas kasutaja on sisestanud parooli?" style="rhombus;whiteSpace=wrap;html=1;" vertex="1" parent="1">
          <mxGeometry x="275" y="1000" width="110" height="91.25" as="geometry" />
        </mxCell>
        <mxCell id="wiZwO5poyF75nGGs72vM-28" value="" style="edgeStyle=orthogonalEdgeStyle;rounded=0;orthogonalLoop=1;jettySize=auto;html=1;" edge="1" parent="1" source="wiZwO5poyF75nGGs72vM-24" target="wiZwO5poyF75nGGs72vM-27">
          <mxGeometry relative="1" as="geometry" />
        </mxCell>
        <mxCell id="wiZwO5poyF75nGGs72vM-29" value="Ei" style="edgeLabel;html=1;align=center;verticalAlign=middle;resizable=0;points=[];" vertex="1" connectable="0" parent="wiZwO5poyF75nGGs72vM-28">
          <mxGeometry x="-0.3083" y="-3" relative="1" as="geometry">
            <mxPoint as="offset" />
          </mxGeometry>
        </mxCell>
        <mxCell id="wiZwO5poyF75nGGs72vM-31" value="" style="edgeStyle=orthogonalEdgeStyle;rounded=0;orthogonalLoop=1;jettySize=auto;html=1;" edge="1" parent="1" source="wiZwO5poyF75nGGs72vM-24" target="wiZwO5poyF75nGGs72vM-30">
          <mxGeometry relative="1" as="geometry" />
        </mxCell>
        <mxCell id="wiZwO5poyF75nGGs72vM-32" value="Jah" style="edgeLabel;html=1;align=center;verticalAlign=middle;resizable=0;points=[];" vertex="1" connectable="0" parent="wiZwO5poyF75nGGs72vM-31">
          <mxGeometry relative="1" as="geometry">
            <mxPoint as="offset" />
          </mxGeometry>
        </mxCell>
        <mxCell id="wiZwO5poyF75nGGs72vM-24" value="Kas kasutaja sisestatudparool on 1234?" style="rhombus;whiteSpace=wrap;html=1;" vertex="1" parent="1">
          <mxGeometry x="290" y="1150.005" width="80" height="80" as="geometry" />
        </mxCell>
        <mxCell id="wiZwO5poyF75nGGs72vM-34" value="" style="edgeStyle=orthogonalEdgeStyle;rounded=0;orthogonalLoop=1;jettySize=auto;html=1;" edge="1" parent="1" source="wiZwO5poyF75nGGs72vM-27" target="wiZwO5poyF75nGGs72vM-33">
          <mxGeometry relative="1" as="geometry" />
        </mxCell>
        <mxCell id="wiZwO5poyF75nGGs72vM-27" value="Kuva kasutajale tekst&amp;nbsp;&lt;div&gt;&quot;Aitäh nimetuKasutaja, olete registreeritud&lt;span style=&quot;background-color: transparent; color: light-dark(rgb(0, 0, 0), rgb(255, 255, 255));&quot;&gt;&quot;&lt;/span&gt;&lt;/div&gt;" style="shape=parallelogram;perimeter=parallelogramPerimeter;whiteSpace=wrap;html=1;fixedSize=1;" vertex="1" parent="1">
          <mxGeometry x="270" y="1330.005" width="120" height="60" as="geometry" />
        </mxCell>
        <mxCell id="wiZwO5poyF75nGGs72vM-46" style="edgeStyle=orthogonalEdgeStyle;rounded=0;orthogonalLoop=1;jettySize=auto;html=1;entryX=1;entryY=0.5;entryDx=0;entryDy=0;" edge="1" parent="1" source="wiZwO5poyF75nGGs72vM-30" target="wiZwO5poyF75nGGs72vM-27">
          <mxGeometry relative="1" as="geometry">
            <Array as="points">
              <mxPoint x="640" y="1188" />
              <mxPoint x="640" y="1360" />
            </Array>
          </mxGeometry>
        </mxCell>
        <mxCell id="wiZwO5poyF75nGGs72vM-30" value="Kuva kasutajale tekst&lt;div&gt;&quot;Seda ei saa paroolina kasutada, määrasin sulle ise parooli &#39;A43Ü&#39;&lt;/div&gt;" style="shape=parallelogram;perimeter=parallelogramPerimeter;whiteSpace=wrap;html=1;fixedSize=1;" vertex="1" parent="1">
          <mxGeometry x="440" y="1146.88" width="140" height="83.13" as="geometry" />
        </mxCell>
        <mxCell id="wiZwO5poyF75nGGs72vM-33" value="Lõpp" style="ellipse;whiteSpace=wrap;html=1;" vertex="1" parent="1">
          <mxGeometry x="270" y="1500" width="120" height="80" as="geometry" />
        </mxCell>
        <mxCell id="wiZwO5poyF75nGGs72vM-40" value="" style="edgeStyle=orthogonalEdgeStyle;rounded=0;orthogonalLoop=1;jettySize=auto;html=1;" edge="1" parent="1" source="wiZwO5poyF75nGGs72vM-36" target="wiZwO5poyF75nGGs72vM-38">
          <mxGeometry relative="1" as="geometry" />
        </mxCell>
        <mxCell id="wiZwO5poyF75nGGs72vM-36" value="Oota, kuniks kasutaja kirjutab oma nime" style="shape=parallelogram;perimeter=parallelogramPerimeter;whiteSpace=wrap;html=1;fixedSize=1;" vertex="1" parent="1">
          <mxGeometry x="270" y="300" width="120" height="60" as="geometry" />
        </mxCell>
        <mxCell id="wiZwO5poyF75nGGs72vM-39" value="" style="edgeStyle=orthogonalEdgeStyle;rounded=0;orthogonalLoop=1;jettySize=auto;html=1;" edge="1" parent="1" source="wiZwO5poyF75nGGs72vM-38" target="wiZwO5poyF75nGGs72vM-13">
          <mxGeometry relative="1" as="geometry" />
        </mxCell>
        <mxCell id="wiZwO5poyF75nGGs72vM-44" value="Ei" style="edgeLabel;html=1;align=center;verticalAlign=middle;resizable=0;points=[];" vertex="1" connectable="0" parent="wiZwO5poyF75nGGs72vM-39">
          <mxGeometry x="-0.3812" y="2" relative="1" as="geometry">
            <mxPoint as="offset" />
          </mxGeometry>
        </mxCell>
        <mxCell id="wiZwO5poyF75nGGs72vM-42" style="edgeStyle=orthogonalEdgeStyle;rounded=0;orthogonalLoop=1;jettySize=auto;html=1;entryX=1;entryY=0.5;entryDx=0;entryDy=0;" edge="1" parent="1" source="wiZwO5poyF75nGGs72vM-38" target="wiZwO5poyF75nGGs72vM-36">
          <mxGeometry relative="1" as="geometry">
            <Array as="points">
              <mxPoint x="490" y="450" />
              <mxPoint x="490" y="330" />
            </Array>
          </mxGeometry>
        </mxCell>
        <mxCell id="wiZwO5poyF75nGGs72vM-43" value="Jah" style="edgeLabel;html=1;align=center;verticalAlign=middle;resizable=0;points=[];" vertex="1" connectable="0" parent="wiZwO5poyF75nGGs72vM-42">
          <mxGeometry x="-0.7053" y="-2" relative="1" as="geometry">
            <mxPoint as="offset" />
          </mxGeometry>
        </mxCell>
        <mxCell id="wiZwO5poyF75nGGs72vM-38" value="Kas kasutaja on end identifitseerinud?" style="rhombus;whiteSpace=wrap;html=1;" vertex="1" parent="1">
          <mxGeometry x="290" y="410" width="80" height="80" as="geometry" />
        </mxCell>
      </root>
    </mxGraphModel>
  </diagram>
</mxfile>
